# MagicaVoxel @ Ephtracy

# group
o 

# material
mtllib blocks-0.mtl
usemtl palette

# normals
vn 0 0 -1
vn 0 0 1
vn -1 0 0
vn 1 0 0
vn 0 -1 0
vn 0 1 0

# texcoords
vt 0.818359 0.5
vt 0.896484 0.5
vt 0.916016 0.5
vt 0.962891 0.5

# verts
v -2 -2.3 -1.9
v -1.3 -2.3 -1.9
v -1.3 -1 -1.9
v -0.9 -1 -1.9
v -2 2.38419e-007 -1.9
v -0.9 2.38419e-007 -1.9
v -0.8 2.38419e-007 -1.9
v -2 0.2 -1.9
v -0.8 0.2 -1.9
v -1.3 -2.3 -1.2
v -1.2 -2.3 -1.2
v -1.3 -1.6 -1.2
v -1.2 -1.6 -1.2
v -0.9 -0.3 -0.8
v -0.8 -0.3 -0.8
v -0.9 2.38419e-007 -0.8
v -0.8 2.38419e-007 -0.8
v -0.4 -2.3 -0.1
v 2.38419e-007 -2.3 -0.1
v -0.4 -1.9 -0.1
v 2.38419e-007 -1.9 -0.1
v -2 -1.6 -1.2
v -1.3 -1.6 -1.2
v -2 -1 -1.2
v -1.3 -1 -1.2
v -2 -1 -0.8
v -1.1 -1 -0.8
v -1 -1 -0.8
v -0.9 -1 -0.8
v -1.2 -0.7 -0.8
v -1.1 -0.7 -0.8
v -1.2 -0.6 -0.8
v -1.1 -0.6 -0.8
v -1.6 -0.3 -0.8
v -1.1 -0.3 -0.8
v -1 -0.3 -0.8
v -0.9 -0.3 -0.8
v -2 2.38419e-007 -0.8
v -1.6 2.38419e-007 -0.8
v -1.1 -1 -0.7
v -1 -1 -0.7
v -1.2 -0.7 -0.7
v -1.1 -0.7 -0.7
v -1.2 -0.6 -0.7
v -1.1 -0.6 -0.7
v -1.6 -0.3 -0.7
v -1.1 -0.3 -0.7
v -1 -0.3 -0.7
v -0.8 -0.3 -0.7
v -2 2.38419e-007 -0.7
v -1.6 2.38419e-007 -0.7
v -2 0.2 -0.7
v -0.8 0.2 -0.7
v -2 -2.3 -0.6
v -1.2 -2.3 -0.6
v -2 -1.6 -0.6
v -1.2 -1.6 -0.6
v -0.4 -2.3 0.3
v 2.38419e-007 -2.3 0.3
v -0.4 -1.9 0.3
v 2.38419e-007 -1.9 0.3
v -2 -2.3 -1.9
v -2 2.38419e-007 -1.9
v -2 0.2 -1.9
v -2 -2.3 -1.2
v -2 -1.6 -1.2
v -2 -1 -1.2
v -2 -1 -0.8
v -2 2.38419e-007 -0.8
v -2 2.38419e-007 -0.7
v -2 0.2 -0.7
v -2 -2.3 -0.6
v -2 -1.6 -0.6
v -1.6 -0.3 -0.8
v -1.6 2.38419e-007 -0.8
v -1.6 -0.3 -0.7
v -1.6 2.38419e-007 -0.7
v -1.2 -0.7 -0.8
v -1.2 -0.6 -0.8
v -1.2 -0.7 -0.7
v -1.2 -0.6 -0.7
v -1.1 -1 -0.8
v -1.1 -0.7 -0.8
v -1.1 -0.6 -0.8
v -1.1 -0.3 -0.8
v -1.1 -1 -0.7
v -1.1 -0.7 -0.7
v -1.1 -0.6 -0.7
v -1.1 -0.3 -0.7
v -0.4 -2.3 -0.1
v -0.4 -1.9 -0.1
v -0.4 -2.3 0.3
v -0.4 -1.9 0.3
v -1.3 -2.3 -1.9
v -1.3 -1 -1.9
v -1.3 -2.3 -1.2
v -1.3 -1.6 -1.2
v -1.3 -1 -1.2
v -1.2 -2.3 -1.2
v -1.2 -1.6 -1.2
v -1.2 -2.3 -0.6
v -1.2 -1.6 -0.6
v -1 -1 -0.8
v -1 -0.3 -0.8
v -1 -1 -0.7
v -1 -0.3 -0.7
v -0.9 -1 -1.9
v -0.9 2.38419e-007 -1.9
v -0.9 -1 -0.8
v -0.9 -0.3 -0.8
v -0.9 2.38419e-007 -0.8
v -0.8 2.38419e-007 -1.9
v -0.8 0.2 -1.9
v -0.8 -0.3 -0.8
v -0.8 2.38419e-007 -0.8
v -0.8 -0.3 -0.7
v -0.8 0.2 -0.7
v 2.38419e-007 -2.3 -0.1
v 2.38419e-007 -1.9 -0.1
v 2.38419e-007 -2.3 0.3
v 2.38419e-007 -1.9 0.3
v -2 -2.3 -1.9
v -2 -2.3 -1.2
v -2 -2.3 -0.6
v -1.3 -2.3 -1.9
v -1.3 -2.3 -1.2
v -1.2 -2.3 -1.2
v -1.2 -2.3 -0.6
v -0.4 -2.3 -0.1
v -0.4 -2.3 0.3
v 2.38419e-007 -2.3 -0.1
v 2.38419e-007 -2.3 0.3
v -2 -1 -1.2
v -2 -1 -0.8
v -1.3 -1 -1.9
v -1.3 -1 -1.2
v -1.1 -1 -0.8
v -1.1 -1 -0.7
v -1 -1 -0.8
v -1 -1 -0.7
v -0.9 -1 -1.9
v -0.9 -1 -0.8
v -1.2 -0.7 -0.8
v -1.2 -0.7 -0.7
v -1.1 -0.7 -0.8
v -1.1 -0.7 -0.7
v -1.6 -0.3 -0.8
v -1.6 -0.3 -0.7
v -1.1 -0.3 -0.8
v -1.1 -0.3 -0.7
v -1 -0.3 -0.8
v -1 -0.3 -0.7
v -0.9 -0.3 -0.8
v -0.8 -0.3 -0.8
v -0.8 -0.3 -0.7
v -2 2.38419e-007 -0.8
v -2 2.38419e-007 -0.7
v -1.6 2.38419e-007 -0.8
v -1.6 2.38419e-007 -0.7
v -0.9 2.38419e-007 -1.9
v -0.9 2.38419e-007 -0.8
v -0.8 2.38419e-007 -1.9
v -0.8 2.38419e-007 -0.8
v -0.4 -1.9 -0.1
v -0.4 -1.9 0.3
v 2.38419e-007 -1.9 -0.1
v 2.38419e-007 -1.9 0.3
v -2 -1.6 -1.2
v -2 -1.6 -0.6
v -1.3 -1.6 -1.2
v -1.2 -1.6 -1.2
v -1.2 -1.6 -0.6
v -1.2 -0.6 -0.8
v -1.2 -0.6 -0.7
v -1.1 -0.6 -0.8
v -1.1 -0.6 -0.7
v -2 0.2 -1.9
v -2 0.2 -0.7
v -0.8 0.2 -1.9
v -0.8 0.2 -0.7

# faces
f 3/1/1 2/1/1 1/1/1
f 5/1/1 3/1/1 1/1/1
f 5/1/1 4/1/1 3/1/1
f 6/1/1 4/1/1 5/1/1
f 8/2/1 6/2/1 5/2/1
f 8/2/1 7/2/1 6/2/1
f 9/2/1 7/2/1 8/2/1
f 12/3/1 11/3/1 10/3/1
f 13/3/1 11/3/1 12/3/1
f 16/2/1 15/2/1 14/2/1
f 17/2/1 15/2/1 16/2/1
f 20/3/1 19/3/1 18/3/1
f 21/3/1 19/3/1 20/3/1
f 22/1/2 23/1/2 24/1/2
f 24/1/2 23/1/2 25/1/2
f 26/1/2 27/1/2 30/1/2
f 30/1/2 27/1/2 31/1/2
f 26/1/2 30/1/2 32/1/2
f 26/1/2 32/1/2 34/1/2
f 32/1/2 33/1/2 34/1/2
f 34/1/2 33/1/2 35/1/2
f 28/1/2 29/1/2 36/1/2
f 36/1/2 29/1/2 37/1/2
f 26/1/2 34/1/2 38/1/2
f 38/1/2 34/1/2 39/1/2
f 40/2/2 41/2/2 43/2/2
f 42/4/2 43/4/2 44/4/2
f 43/2/2 41/2/2 45/2/2
f 44/4/2 43/4/2 45/4/2
f 45/2/2 41/2/2 47/2/2
f 47/2/2 41/2/2 48/2/2
f 46/2/2 47/2/2 51/2/2
f 48/2/2 49/2/2 51/2/2
f 47/2/2 48/2/2 51/2/2
f 50/2/2 51/2/2 52/2/2
f 51/2/2 49/2/2 53/2/2
f 52/2/2 51/2/2 53/2/2
f 54/3/2 55/3/2 56/3/2
f 56/3/2 55/3/2 57/3/2
f 58/3/2 59/3/2 60/3/2
f 60/3/2 59/3/2 61/3/2
f 65/1/3 63/1/3 62/1/3
f 66/1/3 63/1/3 65/1/3
f 67/1/3 63/1/3 66/1/3
f 68/1/3 63/1/3 67/1/3
f 69/2/3 64/2/3 63/2/3
f 69/1/3 63/1/3 68/1/3
f 70/2/3 64/2/3 69/2/3
f 71/2/3 64/2/3 70/2/3
f 72/3/3 66/3/3 65/3/3
f 73/3/3 66/3/3 72/3/3
f 76/2/3 75/2/3 74/2/3
f 77/2/3 75/2/3 76/2/3
f 80/4/3 79/4/3 78/4/3
f 81/4/3 79/4/3 80/4/3
f 86/2/3 83/2/3 82/2/3
f 87/2/3 83/2/3 86/2/3
f 88/2/3 85/2/3 84/2/3
f 89/2/3 85/2/3 88/2/3
f 92/3/3 91/3/3 90/3/3
f 93/3/3 91/3/3 92/3/3
f 94/1/4 95/1/4 96/1/4
f 96/1/4 95/1/4 97/1/4
f 97/1/4 95/1/4 98/1/4
f 99/3/4 100/3/4 101/3/4
f 101/3/4 100/3/4 102/3/4
f 103/2/4 104/2/4 105/2/4
f 105/2/4 104/2/4 106/2/4
f 107/1/4 108/1/4 109/1/4
f 109/1/4 108/1/4 110/1/4
f 110/1/4 108/1/4 111/1/4
f 112/2/4 113/2/4 115/2/4
f 114/2/4 115/2/4 116/2/4
f 115/2/4 113/2/4 117/2/4
f 116/2/4 115/2/4 117/2/4
f 118/3/4 119/3/4 120/3/4
f 120/3/4 119/3/4 121/3/4
f 125/1/5 123/1/5 122/1/5
f 126/3/5 124/3/5 123/3/5
f 126/1/5 123/1/5 125/1/5
f 127/3/5 124/3/5 126/3/5
f 128/3/5 124/3/5 127/3/5
f 131/3/5 130/3/5 129/3/5
f 132/3/5 130/3/5 131/3/5
f 136/1/5 134/1/5 133/1/5
f 137/1/5 134/1/5 136/1/5
f 137/1/5 136/1/5 135/1/5
f 139/1/5 137/1/5 135/1/5
f 139/2/5 138/2/5 137/2/5
f 140/2/5 138/2/5 139/2/5
f 141/1/5 139/1/5 135/1/5
f 142/1/5 139/1/5 141/1/5
f 145/4/5 144/4/5 143/4/5
f 146/4/5 144/4/5 145/4/5
f 149/2/5 148/2/5 147/2/5
f 150/2/5 148/2/5 149/2/5
f 153/2/5 152/2/5 151/2/5
f 154/2/5 152/2/5 153/2/5
f 155/2/5 152/2/5 154/2/5
f 158/2/5 157/2/5 156/2/5
f 159/2/5 157/2/5 158/2/5
f 162/2/5 161/2/5 160/2/5
f 163/2/5 161/2/5 162/2/5
f 164/3/6 165/3/6 166/3/6
f 166/3/6 165/3/6 167/3/6
f 168/3/6 169/3/6 170/3/6
f 170/3/6 169/3/6 171/3/6
f 171/3/6 169/3/6 172/3/6
f 173/4/6 174/4/6 175/4/6
f 175/4/6 174/4/6 176/4/6
f 177/2/6 178/2/6 179/2/6
f 179/2/6 178/2/6 180/2/6
