# MagicaVoxel @ Ephtracy

# group
o 

# material
mtllib blocks-8.mtl
usemtl palette

# normals
vn -1 0 0
vn 1 0 0
vn 0 0 1
vn 0 0 -1
vn 0 -1 0
vn 0 1 0

# texcoords
vt 0.787109 0.5
vt 0.861328 0.5
vt 0.880859 0.5
vt 0.912109 0.5

# verts
v -2 -4.5 2
v -2 -4.5 1.3
v -2 -4.5 -1.3
v -2 -4.5 -2
v -2 0 1.7
v -2 0 1.3
v -2 0 -1.3
v -2 0.1 1.7
v -2 0.1 1.3
v -2 0.1 -1.3
v -2 0.5 2
v -2 0.5 1.3
v -2 0.5 -1.3
v -2 0.5 -2
v -0.7 0 1.7
v -0.7 0 1.6
v -0.7 0 -1.7
v -0.7 0 -1.8
v -0.7 0.1 1.7
v -0.7 0.1 1.6
v -0.7 0.1 -1.7
v -0.7 0.1 -1.8
v -0.3 -4.5 -1.4
v -0.3 -4.5 -2
v -0.3 0 -1.4
v -0.3 0 -1.8
v -0.3 0.1 -1.4
v -0.3 0.1 -1.8
v -0.3 0.5 -1.4
v -0.3 0.5 -2
v -0.2 -4.5 2
v -0.2 -4.5 1.4
v -0.2 0 1.7
v -0.2 0 1.4
v -0.2 0.1 1.7
v -0.2 0.1 1.4
v -0.2 0.5 2
v -0.2 0.5 1.4
v 1.1 0 1.7
v 1.1 0 1.6
v 1.1 0 -1.7
v 1.1 0 -1.8
v 1.1 0.1 1.7
v 1.1 0.1 1.6
v 1.1 0.1 -1.7
v 1.1 0.1 -1.8
v 1.4 -4.5 2
v 1.4 -4.5 1.4
v 1.4 -4.5 -1.4
v 1.4 -4.5 -2
v 1.4 0 1.7
v 1.4 0 1.4
v 1.4 0 -1.4
v 1.4 0 -1.8
v 1.4 0.1 1.7
v 1.4 0.1 1.4
v 1.4 0.1 -1.4
v 1.4 0.1 -1.8
v 1.4 0.5 2
v 1.4 0.5 1.4
v 1.4 0.5 -1.4
v 1.4 0.5 -2
v -1.3 -4.5 2
v -1.3 -4.5 1.3
v -1.3 -4.5 -1.3
v -1.3 -4.5 -2
v -1.3 0 1.7
v -1.3 0 1.3
v -1.3 0 -1.3
v -1.3 0 -1.8
v -1.3 0.1 1.7
v -1.3 0.1 1.3
v -1.3 0.1 -1.3
v -1.3 0.1 -1.8
v -1.3 0.5 2
v -1.3 0.5 1.3
v -1.3 0.5 -1.3
v -1.3 0.5 -2
v -1.2 0 1.7
v -1.2 0 1.6
v -1.2 0 -1.7
v -1.2 0 -1.8
v -1.2 0.1 1.7
v -1.2 0.1 1.6
v -1.2 0.1 -1.7
v -1.2 0.1 -1.8
v 0.3 -4.5 -1.4
v 0.3 -4.5 -2
v 0.3 0 -1.4
v 0.3 0 -1.8
v 0.3 0.1 -1.4
v 0.3 0.1 -1.8
v 0.3 0.5 -1.4
v 0.3 0.5 -2
v 0.4 -4.5 2
v 0.4 -4.5 1.4
v 0.4 0 1.7
v 0.4 0 1.4
v 0.4 0.1 1.7
v 0.4 0.1 1.4
v 0.4 0.5 2
v 0.4 0.5 1.4
v 0.6 0 1.7
v 0.6 0 1.6
v 0.6 0 -1.7
v 0.6 0 -1.8
v 0.6 0.1 1.7
v 0.6 0.1 1.6
v 0.6 0.1 -1.7
v 0.6 0.1 -1.8
v 1.7 0 1.4
v 1.7 0 -1.4
v 1.7 0.1 1.4
v 1.7 0.1 -1.4
v 2 -4.5 2
v 2 -4.5 1.4
v 2 -4.5 -1.4
v 2 -4.5 -2
v 2 0.5 2
v 2 0.5 1.4
v 2 0.5 -1.4
v 2 0.5 -2
v -2 -4.5 2
v -2 0.5 2
v -1.3 -4.5 2
v -1.3 0.5 2
v -0.2 -4.5 2
v -0.2 0.5 2
v 0.4 -4.5 2
v 0.4 0.5 2
v 1.4 -4.5 2
v 1.4 0.5 2
v 2 -4.5 2
v 2 0.5 2
v -1.3 0 1.7
v -1.3 0.1 1.7
v -1.2 0 1.7
v -1.2 0.1 1.7
v -0.7 0 1.7
v -0.7 0.1 1.7
v -0.2 0 1.7
v -0.2 0.1 1.7
v 0.4 0 1.7
v 0.4 0.1 1.7
v 0.6 0 1.7
v 0.6 0.1 1.7
v 1.1 0 1.7
v 1.1 0.1 1.7
v 1.4 0 1.7
v 1.4 0.1 1.7
v -1.2 0 1.6
v -1.2 0.1 1.6
v -0.7 0 1.6
v -0.7 0.1 1.6
v 0.6 0 1.6
v 0.6 0.1 1.6
v 1.1 0 1.6
v 1.1 0.1 1.6
v -2 -4.5 -1.3
v -2 0 -1.3
v -2 0.1 -1.3
v -2 0.5 -1.3
v -1.3 -4.5 -1.3
v -1.3 0 -1.3
v -1.3 0.1 -1.3
v -1.3 0.5 -1.3
v -0.3 -4.5 -1.4
v -0.3 0 -1.4
v -0.3 0.1 -1.4
v -0.3 0.5 -1.4
v -0.2 0 -1.4
v -0.2 0.1 -1.4
v 0.2 0 -1.4
v 0.2 0.1 -1.4
v 0.3 -4.5 -1.4
v 0.3 0 -1.4
v 0.3 0.1 -1.4
v 0.3 0.5 -1.4
v 1.4 -4.5 -1.4
v 1.4 0 -1.4
v 1.4 0.1 -1.4
v 1.4 0.5 -1.4
v 1.7 0 -1.4
v 1.7 0.1 -1.4
v 2 -4.5 -1.4
v 2 0.5 -1.4
v -0.2 -4.5 1.4
v -0.2 0 1.4
v -0.2 0.1 1.4
v -0.2 0.5 1.4
v 0.2 0 1.4
v 0.2 0.1 1.4
v 0.4 -4.5 1.4
v 0.4 0 1.4
v 0.4 0.1 1.4
v 0.4 0.5 1.4
v 1.4 -4.5 1.4
v 1.4 0 1.4
v 1.4 0.1 1.4
v 1.4 0.5 1.4
v 1.7 0 1.4
v 1.7 0.1 1.4
v 2 -4.5 1.4
v 2 0.5 1.4
v -2 -4.5 1.3
v -2 0 1.3
v -2 0.1 1.3
v -2 0.5 1.3
v -1.3 -4.5 1.3
v -1.3 0 1.3
v -1.3 0.1 1.3
v -1.3 0.5 1.3
v -1.2 0 -1.7
v -1.2 0.1 -1.7
v -0.7 0 -1.7
v -0.7 0.1 -1.7
v 0.6 0 -1.7
v 0.6 0.1 -1.7
v 1.1 0 -1.7
v 1.1 0.1 -1.7
v -1.3 0 -1.8
v -1.3 0.1 -1.8
v -1.2 0 -1.8
v -1.2 0.1 -1.8
v -0.7 0 -1.8
v -0.7 0.1 -1.8
v -0.3 0 -1.8
v -0.3 0.1 -1.8
v 0.3 0 -1.8
v 0.3 0.1 -1.8
v 0.6 0 -1.8
v 0.6 0.1 -1.8
v 1.1 0 -1.8
v 1.1 0.1 -1.8
v 1.4 0 -1.8
v 1.4 0.1 -1.8
v -2 -4.5 -2
v -2 0.5 -2
v -1.3 -4.5 -2
v -1.3 0.5 -2
v -0.3 -4.5 -2
v -0.3 0.5 -2
v 0.3 -4.5 -2
v 0.3 0.5 -2
v 1.4 -4.5 -2
v 1.4 0.5 -2
v 2 -4.5 -2
v 2 0.5 -2
v -2 -4.5 2
v -1.3 -4.5 2
v -0.2 -4.5 2
v 0.4 -4.5 2
v 1.4 -4.5 2
v 2 -4.5 2
v -0.2 -4.5 1.4
v 0.4 -4.5 1.4
v 1.4 -4.5 1.4
v 2 -4.5 1.4
v -2 -4.5 1.3
v -1.3 -4.5 1.3
v -2 -4.5 -1.3
v -1.3 -4.5 -1.3
v -0.3 -4.5 -1.4
v 0.3 -4.5 -1.4
v 1.4 -4.5 -1.4
v 2 -4.5 -1.4
v -2 -4.5 -2
v -1.3 -4.5 -2
v -0.3 -4.5 -2
v 0.3 -4.5 -2
v 1.4 -4.5 -2
v 2 -4.5 -2
v -1.3 0 1.7
v -1.2 0 1.7
v -0.7 0 1.7
v -0.2 0 1.7
v 0.4 0 1.7
v 0.6 0 1.7
v 1.1 0 1.7
v 1.4 0 1.7
v -1.2 0 1.6
v -0.7 0 1.6
v 0.6 0 1.6
v 1.1 0 1.6
v -0.2 0 1.4
v 0.2 0 1.4
v 0.4 0 1.4
v 1.4 0 1.4
v 1.7 0 1.4
v -2 0 1.3
v -1.3 0 1.3
v -2 0 -1.3
v -1.3 0 -1.3
v -0.3 0 -1.4
v -0.2 0 -1.4
v 0.2 0 -1.4
v 0.3 0 -1.4
v 1.4 0 -1.4
v 1.7 0 -1.4
v -1.2 0 -1.7
v -0.7 0 -1.7
v 0.6 0 -1.7
v 1.1 0 -1.7
v -1.3 0 -1.8
v -1.2 0 -1.8
v -0.7 0 -1.8
v -0.3 0 -1.8
v 0.3 0 -1.8
v 0.6 0 -1.8
v 1.1 0 -1.8
v 1.4 0 -1.8
v -1.3 0.1 1.7
v -1.2 0.1 1.7
v -0.7 0.1 1.7
v -0.2 0.1 1.7
v 0.4 0.1 1.7
v 0.6 0.1 1.7
v 1.1 0.1 1.7
v 1.4 0.1 1.7
v -1.2 0.1 1.6
v -0.7 0.1 1.6
v 0.6 0.1 1.6
v 1.1 0.1 1.6
v -0.2 0.1 1.4
v 0.2 0.1 1.4
v 0.4 0.1 1.4
v 1.4 0.1 1.4
v 1.7 0.1 1.4
v -2 0.1 1.3
v -1.3 0.1 1.3
v -2 0.1 -1.3
v -1.3 0.1 -1.3
v -0.3 0.1 -1.4
v -0.2 0.1 -1.4
v 0.2 0.1 -1.4
v 0.3 0.1 -1.4
v 1.4 0.1 -1.4
v 1.7 0.1 -1.4
v -1.2 0.1 -1.7
v -0.7 0.1 -1.7
v 0.6 0.1 -1.7
v 1.1 0.1 -1.7
v -1.3 0.1 -1.8
v -1.2 0.1 -1.8
v -0.7 0.1 -1.8
v -0.3 0.1 -1.8
v 0.3 0.1 -1.8
v 0.6 0.1 -1.8
v 1.1 0.1 -1.8
v 1.4 0.1 -1.8
v -2 0.5 2
v -1.3 0.5 2
v -0.2 0.5 2
v 0.4 0.5 2
v 1.4 0.5 2
v 2 0.5 2
v -1.9 0.5 1.9
v -1.4 0.5 1.9
v -0.0999999 0.5 1.9
v 0.3 0.5 1.9
v 1.5 0.5 1.9
v 1.9 0.5 1.9
v -0.0999999 0.5 1.5
v 0.3 0.5 1.5
v 1.5 0.5 1.5
v 1.9 0.5 1.5
v -1.9 0.5 1.4
v -1.4 0.5 1.4
v -0.2 0.5 1.4
v 0.4 0.5 1.4
v 1.4 0.5 1.4
v 2 0.5 1.4
v -2 0.5 1.3
v -1.3 0.5 1.3
v -2 0.5 -1.3
v -1.3 0.5 -1.3
v -1.9 0.5 -1.4
v -1.4 0.5 -1.4
v -0.3 0.5 -1.4
v 0.3 0.5 -1.4
v 1.4 0.5 -1.4
v 2 0.5 -1.4
v -0.2 0.5 -1.5
v 0.2 0.5 -1.5
v 1.5 0.5 -1.5
v 1.9 0.5 -1.5
v -1.9 0.5 -1.9
v -1.4 0.5 -1.9
v -0.2 0.5 -1.9
v 0.2 0.5 -1.9
v 1.5 0.5 -1.9
v 1.9 0.5 -1.9
v -2 0.5 -2
v -1.3 0.5 -2
v -0.3 0.5 -2
v 0.3 0.5 -2
v 1.4 0.5 -2
v 2 0.5 -2

# faces
f 5/1/1 2/1/1 1/1/1
f 6/1/1 2/1/1 5/1/1
f 7/1/1 4/1/1 3/1/1
f 8/3/1 6/3/1 5/3/1
f 8/3/1 7/3/1 6/3/1
f 8/1/1 5/1/1 1/1/1
f 9/3/1 7/3/1 8/3/1
f 10/1/1 4/1/1 7/1/1
f 10/3/1 7/3/1 9/3/1
f 11/1/1 9/1/1 8/1/1
f 11/1/1 8/1/1 1/1/1
f 12/1/1 9/1/1 11/1/1
f 13/1/1 4/1/1 10/1/1
f 14/1/1 4/1/1 13/1/1
f 19/3/1 16/3/1 15/3/1
f 20/3/1 16/3/1 19/3/1
f 21/3/1 18/3/1 17/3/1
f 22/3/1 18/3/1 21/3/1
f 25/1/1 24/1/1 23/1/1
f 26/1/1 24/1/1 25/1/1
f 28/1/1 24/1/1 26/1/1
f 29/1/1 28/1/1 27/1/1
f 30/1/1 24/1/1 28/1/1
f 30/1/1 28/1/1 29/1/1
f 33/1/1 32/1/1 31/1/1
f 34/1/1 32/1/1 33/1/1
f 35/1/1 33/1/1 31/1/1
f 37/1/1 35/1/1 31/1/1
f 37/1/1 36/1/1 35/1/1
f 38/1/1 36/1/1 37/1/1
f 43/3/1 40/3/1 39/3/1
f 44/3/1 40/3/1 43/3/1
f 45/3/1 42/3/1 41/3/1
f 46/3/1 42/3/1 45/3/1
f 51/1/1 48/1/1 47/1/1
f 52/1/1 48/1/1 51/1/1
f 53/1/1 50/1/1 49/1/1
f 54/1/1 50/1/1 53/1/1
f 55/1/1 51/1/1 47/1/1
f 58/1/1 50/1/1 54/1/1
f 59/1/1 56/1/1 55/1/1
f 59/1/1 55/1/1 47/1/1
f 60/1/1 56/1/1 59/1/1
f 61/1/1 58/1/1 57/1/1
f 62/1/1 50/1/1 58/1/1
f 62/1/1 58/1/1 61/1/1
f 63/1/2 64/1/2 67/1/2
f 67/1/2 64/1/2 68/1/2
f 65/1/2 66/1/2 69/1/2
f 69/1/2 66/1/2 70/1/2
f 63/1/2 67/1/2 71/1/2
f 70/1/2 66/1/2 74/1/2
f 71/1/2 72/1/2 75/1/2
f 63/1/2 71/1/2 75/1/2
f 75/1/2 72/1/2 76/1/2
f 73/1/2 74/1/2 77/1/2
f 74/1/2 66/1/2 78/1/2
f 77/1/2 74/1/2 78/1/2
f 79/3/2 80/3/2 83/3/2
f 83/3/2 80/3/2 84/3/2
f 81/3/2 82/3/2 85/3/2
f 85/3/2 82/3/2 86/3/2
f 87/1/2 88/1/2 89/1/2
f 89/1/2 88/1/2 90/1/2
f 90/1/2 88/1/2 92/1/2
f 91/1/2 92/1/2 93/1/2
f 92/1/2 88/1/2 94/1/2
f 93/1/2 92/1/2 94/1/2
f 95/1/2 96/1/2 97/1/2
f 97/1/2 96/1/2 98/1/2
f 95/1/2 97/1/2 99/1/2
f 95/1/2 99/1/2 101/1/2
f 99/1/2 100/1/2 101/1/2
f 101/1/2 100/1/2 102/1/2
f 103/3/2 104/3/2 107/3/2
f 107/3/2 104/3/2 108/3/2
f 105/3/2 106/3/2 109/3/2
f 109/3/2 106/3/2 110/3/2
f 111/3/2 112/3/2 113/3/2
f 113/3/2 112/3/2 114/3/2
f 115/1/2 116/1/2 119/1/2
f 119/1/2 116/1/2 120/1/2
f 117/1/2 118/1/2 121/1/2
f 121/1/2 118/1/2 122/1/2
f 125/1/3 124/1/3 123/1/3
f 126/1/3 124/1/3 125/1/3
f 129/1/3 128/1/3 127/1/3
f 130/1/3 128/1/3 129/1/3
f 133/1/3 132/1/3 131/1/3
f 134/1/3 132/1/3 133/1/3
f 137/3/3 136/3/3 135/3/3
f 138/3/3 136/3/3 137/3/3
f 141/3/3 140/3/3 139/3/3
f 142/3/3 140/3/3 141/3/3
f 145/3/3 144/3/3 143/3/3
f 146/3/3 144/3/3 145/3/3
f 149/3/3 148/3/3 147/3/3
f 150/3/3 148/3/3 149/3/3
f 153/4/3 152/4/3 151/4/3
f 154/4/3 152/4/3 153/4/3
f 157/4/3 156/4/3 155/4/3
f 158/4/3 156/4/3 157/4/3
f 163/1/3 160/1/3 159/1/3
f 164/1/3 160/1/3 163/1/3
f 165/1/3 162/1/3 161/1/3
f 166/1/3 162/1/3 165/1/3
f 171/1/3 168/1/3 167/1/3
f 172/1/3 170/1/3 169/1/3
f 173/1/3 171/1/3 167/1/3
f 174/1/3 170/1/3 172/1/3
f 175/1/3 173/1/3 167/1/3
f 176/1/3 173/1/3 175/1/3
f 177/1/3 170/1/3 174/1/3
f 178/1/3 170/1/3 177/1/3
f 183/1/3 180/1/3 179/1/3
f 184/1/3 182/1/3 181/1/3
f 185/1/3 183/1/3 179/1/3
f 185/1/3 184/1/3 183/1/3
f 186/1/3 182/1/3 184/1/3
f 186/1/3 184/1/3 185/1/3
f 187/1/4 188/1/4 191/1/4
f 189/1/4 190/1/4 192/1/4
f 187/1/4 191/1/4 193/1/4
f 193/1/4 191/1/4 194/1/4
f 192/1/4 190/1/4 195/1/4
f 195/1/4 190/1/4 196/1/4
f 197/1/4 198/1/4 201/1/4
f 199/1/4 200/1/4 202/1/4
f 197/1/4 201/1/4 203/1/4
f 201/1/4 202/1/4 203/1/4
f 202/1/4 200/1/4 204/1/4
f 203/1/4 202/1/4 204/1/4
f 205/1/4 206/1/4 209/1/4
f 209/1/4 206/1/4 210/1/4
f 207/1/4 208/1/4 211/1/4
f 211/1/4 208/1/4 212/1/4
f 213/4/4 214/4/4 215/4/4
f 215/4/4 214/4/4 216/4/4
f 217/4/4 218/4/4 219/4/4
f 219/4/4 218/4/4 220/4/4
f 221/3/4 222/3/4 223/3/4
f 223/3/4 222/3/4 224/3/4
f 225/3/4 226/3/4 227/3/4
f 227/3/4 226/3/4 228/3/4
f 229/3/4 230/3/4 231/3/4
f 231/3/4 230/3/4 232/3/4
f 233/3/4 234/3/4 235/3/4
f 235/3/4 234/3/4 236/3/4
f 237/1/4 238/1/4 239/1/4
f 239/1/4 238/1/4 240/1/4
f 241/1/4 242/1/4 243/1/4
f 243/1/4 242/1/4 244/1/4
f 245/1/4 246/1/4 247/1/4
f 247/1/4 246/1/4 248/1/4
f 255/1/5 252/1/5 251/1/5
f 256/1/5 252/1/5 255/1/5
f 257/1/5 254/1/5 253/1/5
f 258/1/5 254/1/5 257/1/5
f 259/1/5 250/1/5 249/1/5
f 260/1/5 250/1/5 259/1/5
f 267/1/5 262/1/5 261/1/5
f 268/1/5 262/1/5 267/1/5
f 269/1/5 264/1/5 263/1/5
f 270/1/5 264/1/5 269/1/5
f 271/1/5 266/1/5 265/1/5
f 272/1/5 266/1/5 271/1/5
f 281/3/5 274/3/5 273/3/5
f 282/3/5 276/3/5 275/3/5
f 283/3/5 278/3/5 277/3/5
f 284/3/5 280/3/5 279/3/5
f 285/3/5 276/3/5 282/3/5
f 287/3/5 283/3/5 277/3/5
f 288/3/5 280/3/5 284/3/5
f 291/3/5 281/3/5 273/3/5
f 292/3/5 291/3/5 290/3/5
f 293/3/5 281/3/5 291/3/5
f 293/3/5 291/3/5 292/3/5
f 294/3/5 285/3/5 282/3/5
f 295/4/5 286/4/5 285/4/5
f 295/3/5 285/3/5 294/3/5
f 296/3/5 287/3/5 286/3/5
f 296/4/5 286/4/5 295/4/5
f 297/3/5 287/3/5 296/3/5
f 298/3/5 289/3/5 288/3/5
f 298/3/5 288/3/5 284/3/5
f 299/3/5 289/3/5 298/3/5
f 300/4/5 282/4/5 281/4/5
f 300/3/5 281/3/5 293/3/5
f 301/3/5 294/3/5 282/3/5
f 301/4/5 282/4/5 300/4/5
f 302/3/5 287/3/5 297/3/5
f 302/4/5 284/4/5 283/4/5
f 302/3/5 283/3/5 287/3/5
f 303/3/5 298/3/5 284/3/5
f 303/4/5 284/4/5 302/4/5
f 304/3/5 300/3/5 293/3/5
f 305/3/5 300/3/5 304/3/5
f 306/3/5 294/3/5 301/3/5
f 307/3/5 294/3/5 306/3/5
f 308/3/5 302/3/5 297/3/5
f 309/3/5 302/3/5 308/3/5
f 310/3/5 298/3/5 303/3/5
f 311/3/5 298/3/5 310/3/5
f 312/3/6 313/3/6 320/3/6
f 314/3/6 315/3/6 321/3/6
f 316/3/6 317/3/6 322/3/6
f 318/3/6 319/3/6 323/3/6
f 321/3/6 315/3/6 324/3/6
f 316/3/6 322/3/6 326/3/6
f 323/3/6 319/3/6 327/3/6
f 312/3/6 320/3/6 330/3/6
f 329/3/6 330/3/6 331/3/6
f 330/3/6 320/3/6 332/3/6
f 331/3/6 330/3/6 332/3/6
f 321/3/6 324/3/6 333/3/6
f 324/4/6 325/4/6 334/4/6
f 333/3/6 324/3/6 334/3/6
f 325/3/6 326/3/6 335/3/6
f 334/4/6 325/4/6 335/4/6
f 335/3/6 326/3/6 336/3/6
f 327/3/6 328/3/6 337/3/6
f 323/3/6 327/3/6 337/3/6
f 337/3/6 328/3/6 338/3/6
f 320/4/6 321/4/6 339/4/6
f 332/3/6 320/3/6 339/3/6
f 321/3/6 333/3/6 340/3/6
f 339/4/6 321/4/6 340/4/6
f 336/3/6 326/3/6 341/3/6
f 322/4/6 323/4/6 341/4/6
f 326/3/6 322/3/6 341/3/6
f 323/3/6 337/3/6 342/3/6
f 341/4/6 323/4/6 342/4/6
f 332/3/6 339/3/6 343/3/6
f 343/3/6 339/3/6 344/3/6
f 340/3/6 333/3/6 345/3/6
f 345/3/6 333/3/6 346/3/6
f 336/3/6 341/3/6 347/3/6
f 347/3/6 341/3/6 348/3/6
f 342/3/6 337/3/6 349/3/6
f 349/3/6 337/3/6 350/3/6
f 351/1/6 352/1/6 357/1/6
f 357/1/6 352/1/6 358/1/6
f 353/1/6 354/1/6 359/1/6
f 359/1/6 354/1/6 360/1/6
f 355/1/6 356/1/6 361/1/6
f 361/1/6 356/1/6 362/1/6
f 353/1/6 359/1/6 363/1/6
f 359/2/6 360/2/6 363/2/6
f 360/1/6 354/1/6 364/1/6
f 363/2/6 360/2/6 364/2/6
f 361/2/6 362/2/6 365/2/6
f 355/1/6 361/1/6 365/1/6
f 362/1/6 356/1/6 366/1/6
f 365/2/6 362/2/6 366/2/6
f 351/1/6 357/1/6 367/1/6
f 357/2/6 358/2/6 367/2/6
f 358/1/6 352/1/6 368/1/6
f 367/2/6 358/2/6 368/2/6
f 353/1/6 363/1/6 369/1/6
f 363/1/6 364/1/6 369/1/6
f 364/1/6 354/1/6 370/1/6
f 369/1/6 364/1/6 370/1/6
f 365/1/6 366/1/6 371/1/6
f 355/1/6 365/1/6 371/1/6
f 366/1/6 356/1/6 372/1/6
f 371/1/6 366/1/6 372/1/6
f 351/1/6 367/1/6 373/1/6
f 367/1/6 368/1/6 373/1/6
f 368/1/6 352/1/6 374/1/6
f 373/1/6 368/1/6 374/1/6
f 375/1/6 376/1/6 377/1/6
f 377/1/6 376/1/6 378/1/6
f 379/1/6 380/1/6 383/1/6
f 383/1/6 380/1/6 384/1/6
f 381/1/6 382/1/6 385/1/6
f 385/1/6 382/1/6 386/1/6
f 375/1/6 377/1/6 387/1/6
f 377/2/6 378/2/6 387/2/6
f 378/1/6 376/1/6 388/1/6
f 387/2/6 378/2/6 388/2/6
f 379/1/6 383/1/6 389/1/6
f 383/2/6 384/2/6 389/2/6
f 384/1/6 380/1/6 390/1/6
f 389/2/6 384/2/6 390/2/6
f 385/2/6 386/2/6 391/2/6
f 381/1/6 385/1/6 391/1/6
f 386/1/6 382/1/6 392/1/6
f 391/2/6 386/2/6 392/2/6
f 375/1/6 387/1/6 393/1/6
f 387/1/6 388/1/6 393/1/6
f 388/1/6 376/1/6 394/1/6
f 393/1/6 388/1/6 394/1/6
f 379/1/6 389/1/6 395/1/6
f 389/1/6 390/1/6 395/1/6
f 390/1/6 380/1/6 396/1/6
f 395/1/6 390/1/6 396/1/6
f 381/1/6 391/1/6 397/1/6
f 391/1/6 392/1/6 397/1/6
f 392/1/6 382/1/6 398/1/6
f 397/1/6 392/1/6 398/1/6
