solid OpenSCAD_Model
  facet normal -0 -0.25882 -0.965926
    outer loop
      vertex 2 -1 -1.73205
      vertex 0 -1 -1.73205
      vertex 0 0 -2
    endloop
  endfacet
  facet normal 0 -0 -1
    outer loop
      vertex 2 40 -2
      vertex 2 0 -2
      vertex 0 0 -2
    endloop
  endfacet
  facet normal 1 0 0
    outer loop
      vertex 2 0 27
      vertex 2 -1 26.732
      vertex 2 40 -2
    endloop
  endfacet
  facet normal 0 -0.258865 0.965914
    outer loop
      vertex 2 0 27
      vertex 0 0 27
      vertex 2 -1 26.732
    endloop
  endfacet
  facet normal -1 0 0
    outer loop
      vertex 0 0 27
      vertex 0 41 26.732
      vertex 0 0 -2
    endloop
  endfacet
  facet normal 0 0.25882 -0.965926
    outer loop
      vertex 0 41 -1.73205
      vertex 2 41 -1.73205
      vertex 2 40 -2
    endloop
  endfacet
  facet normal 1 0 0
    outer loop
      vertex 2 -1 26.732
      vertex 2 -1 -1.73205
      vertex 2 40 -2
    endloop
  endfacet
  facet normal -1 0 0
    outer loop
      vertex 0 -2 0
      vertex 0 -2 25
      vertex 0 0 27
    endloop
  endfacet
  facet normal 0 -0.258865 0.965914
    outer loop
      vertex 0 0 27
      vertex 0 -1 26.732
      vertex 2 -1 26.732
    endloop
  endfacet
  facet normal -1 0 0
    outer loop
      vertex 0 0 -2
      vertex 0 -2 0
      vertex 0 0 27
    endloop
  endfacet
  facet normal 1 0 -0
    outer loop
      vertex 2 40 -2
      vertex 2 41 26.732
      vertex 2 0 27
    endloop
  endfacet
  facet normal -1 0 -0
    outer loop
      vertex 0 41 26.732
      vertex 0 41 -1.73205
      vertex 0 0 -2
    endloop
  endfacet
  facet normal 1 0 0
    outer loop
      vertex 2 -1 -1.73205
      vertex 2 0 -2
      vertex 2 40 -2
    endloop
  endfacet
  facet normal 0 -0.25882 -0.965926
    outer loop
      vertex 0 0 -2
      vertex 2 0 -2
      vertex 2 -1 -1.73205
    endloop
  endfacet
  facet normal 0 -0.965926 -0.25882
    outer loop
      vertex 0 -1.73205 -1
      vertex 2 -2 0
      vertex 0 -2 0
    endloop
  endfacet
  facet normal -1 0 0
    outer loop
      vertex 0 0 -2
      vertex 0 -1.73205 -1
      vertex 0 -2 0
    endloop
  endfacet
  facet normal 1 0 0
    outer loop
      vertex 2 -2 0
      vertex 2 -1.73205 -1
      vertex 2 -1 -1.73205
    endloop
  endfacet
  facet normal 1 0 0
    outer loop
      vertex 2 -1 26.732
      vertex 2 -2 0
      vertex 2 -1 -1.73205
    endloop
  endfacet
  facet normal 0 -1 0
    outer loop
      vertex 2 -2 0
      vertex 0 -2 25
      vertex 0 -2 0
    endloop
  endfacet
  facet normal -1 0 0
    outer loop
      vertex 0 -2 25
      vertex 0 -1.73205 26
      vertex 0 -1 26.732
    endloop
  endfacet
  facet normal -1 0 0
    outer loop
      vertex 0 0 27
      vertex 0 40 27
      vertex 0 41 26.732
    endloop
  endfacet
  facet normal 0 0 1
    outer loop
      vertex 2 0 27
      vertex 0 40 27
      vertex 0 0 27
    endloop
  endfacet
  facet normal 0 0.258865 0.965914
    outer loop
      vertex 0 40 27
      vertex 2 41 26.732
      vertex 0 41 26.732
    endloop
  endfacet
  facet normal 1 0 0
    outer loop
      vertex 2 41 26.732
      vertex 2 40 27
      vertex 2 0 27
    endloop
  endfacet
  facet normal -1 0 0
    outer loop
      vertex 0 41 26.732
      vertex 0 42 25
      vertex 0 41 -1.73205
    endloop
  endfacet
  facet normal -1 0 0
    outer loop
      vertex 0 41 -1.73205
      vertex 0 40 -2
      vertex 0 0 -2
    endloop
  endfacet
  facet normal 0 -0.707107 -0.707107
    outer loop
      vertex 0 -1.73205 -1
      vertex 0 -1 -1.73205
      vertex 2 -1 -1.73205
    endloop
  endfacet
  facet normal -1 0 0
    outer loop
      vertex 0 0 -2
      vertex 0 -1 -1.73205
      vertex 0 -1.73205 -1
    endloop
  endfacet
  facet normal 0 -0.965926 -0.25882
    outer loop
      vertex 0 -1.73205 -1
      vertex 2 -1.73205 -1
      vertex 2 -2 0
    endloop
  endfacet
  facet normal 0 -0.707107 -0.707107
    outer loop
      vertex 2 -1 -1.73205
      vertex 2 -1.73205 -1
      vertex 0 -1.73205 -1
    endloop
  endfacet
  facet normal -1 0 0
    outer loop
      vertex 0 -2 25
      vertex 0 -1 26.732
      vertex 0 0 27
    endloop
  endfacet
  facet normal 0 -0.707083 0.707131
    outer loop
      vertex 0 -1 26.732
      vertex 0 -1.73205 26
      vertex 2 -1 26.732
    endloop
  endfacet
  facet normal 0 -1 0
    outer loop
      vertex 2 -2 0
      vertex 2 -2 25
      vertex 0 -2 25
    endloop
  endfacet
  facet normal 1 0 0
    outer loop
      vertex 2 -1 26.732
      vertex 2 -2 25
      vertex 2 -2 0
    endloop
  endfacet
  facet normal -0 0.258865 0.965914
    outer loop
      vertex 0 40 27
      vertex 2 40 27
      vertex 2 41 26.732
    endloop
  endfacet
  facet normal 0 -0 1
    outer loop
      vertex 2 0 27
      vertex 2 40 27
      vertex 0 40 27
    endloop
  endfacet
  facet normal 0 0.707107 0.707107
    outer loop
      vertex 2 41 26.732
      vertex 0 41.732 26
      vertex 0 41 26.732
    endloop
  endfacet
  facet normal -1 0 -0
    outer loop
      vertex 0 42 25
      vertex 0 42 0
      vertex 0 41 -1.73205
    endloop
  endfacet
  facet normal 0 0.25882 -0.965926
    outer loop
      vertex 2 40 -2
      vertex 0 40 -2
      vertex 0 41 -1.73205
    endloop
  endfacet
  facet normal 0 0 -1
    outer loop
      vertex 0 0 -2
      vertex 0 40 -2
      vertex 2 40 -2
    endloop
  endfacet
  facet normal 0 -0.965926 0.25882
    outer loop
      vertex 2 -2 25
      vertex 0 -1.73205 26
      vertex 0 -2 25
    endloop
  endfacet
  facet normal 0 -0.707083 0.707131
    outer loop
      vertex 0 -1.73205 26
      vertex 2 -1.73205 26
      vertex 2 -1 26.732
    endloop
  endfacet
  facet normal 1 0 -0
    outer loop
      vertex 2 42 0
      vertex 2 42 25
      vertex 2 41 26.732
    endloop
  endfacet
  facet normal 1 0 0
    outer loop
      vertex 2 40 -2
      vertex 2 42 0
      vertex 2 41 26.732
    endloop
  endfacet
  facet normal -0 1 0
    outer loop
      vertex 0 42 25
      vertex 2 42 25
      vertex 2 42 0
    endloop
  endfacet
  facet normal -1 0 0
    outer loop
      vertex 0 41 26.732
      vertex 0 41.732 26
      vertex 0 42 25
    endloop
  endfacet
  facet normal 0 -0.965926 0.25882
    outer loop
      vertex 2 -2 25
      vertex 2 -1.73205 26
      vertex 0 -1.73205 26
    endloop
  endfacet
  facet normal 1 0 0
    outer loop
      vertex 2 -1 26.732
      vertex 2 -1.73205 26
      vertex 2 -2 25
    endloop
  endfacet
  facet normal 0 1 0
    outer loop
      vertex 2 42 0
      vertex 0 42 0
      vertex 0 42 25
    endloop
  endfacet
  facet normal 1 0 0
    outer loop
      vertex 2 40 -2
      vertex 2 41.732 -1
      vertex 2 42 0
    endloop
  endfacet
  facet normal 0 0.965914 -0.258865
    outer loop
      vertex 2 41.732 -1
      vertex 0 42 0
      vertex 2 42 0
    endloop
  endfacet
  facet normal -1 0 0
    outer loop
      vertex 0 42 0
      vertex 0 41.732 -1
      vertex 0 41 -1.73205
    endloop
  endfacet
  facet normal 0 0.965914 0.258865
    outer loop
      vertex 0 41.732 26
      vertex 2 42 25
      vertex 0 42 25
    endloop
  endfacet
  facet normal 1 0 0
    outer loop
      vertex 2 42 25
      vertex 2 41.732 26
      vertex 2 41 26.732
    endloop
  endfacet
  facet normal 0 0.707131 -0.707083
    outer loop
      vertex 2 41.732 -1
      vertex 2 41 -1.73205
      vertex 0 41 -1.73205
    endloop
  endfacet
  facet normal 1 0 0
    outer loop
      vertex 2 40 -2
      vertex 2 41 -1.73205
      vertex 2 41.732 -1
    endloop
  endfacet
  facet normal 0 0.965914 -0.258865
    outer loop
      vertex 2 41.732 -1
      vertex 0 41.732 -1
      vertex 0 42 0
    endloop
  endfacet
  facet normal 0 0.707131 -0.707083
    outer loop
      vertex 0 41 -1.73205
      vertex 0 41.732 -1
      vertex 2 41.732 -1
    endloop
  endfacet
  facet normal -0 0.965914 0.258865
    outer loop
      vertex 0 41.732 26
      vertex 2 41.732 26
      vertex 2 42 25
    endloop
  endfacet
  facet normal 0 0.707107 0.707107
    outer loop
      vertex 2 41 26.732
      vertex 2 41.732 26
      vertex 0 41.732 26
    endloop
  endfacet
endsolid OpenSCAD_Model
